<?xml version="1.0" encoding="UTF-8" standalone="no"?>
<svg
   xmlns:dc="http://purl.org/dc/elements/1.1/"
   xmlns:cc="http://creativecommons.org/ns#"
   xmlns:rdf="http://www.w3.org/1999/02/22-rdf-syntax-ns#"
   xmlns:svg="http://www.w3.org/2000/svg"
   xmlns="http://www.w3.org/2000/svg"
   viewBox="0 0 687.5 500"
   height="500"
   width="687.5"
   xml:space="preserve"
   version="1.1"
   id="svg2"><metadata
     id="metadata8"><rdf:RDF><cc:Work
         rdf:about=""><dc:format>image/svg+xml</dc:format><dc:type
           rdf:resource="http://purl.org/dc/dcmitype/StillImage" /><dc:title></dc:title></cc:Work></rdf:RDF></metadata><defs
     id="defs6"><clipPath
       id="clipPath16"
       clipPathUnits="userSpaceOnUse"><path
         id="path18"
         d="M 0,400 550,400 550,0 0,0 0,400 Z" /></clipPath></defs><g
     transform="matrix(1.25,0,0,-1.25,0,500)"
     id="g10"><g
       id="g12"><g
         clip-path="url(#clipPath16)"
         id="g14"><g
           transform="translate(220.3501,141.1504)"
           id="g20"><path
             id="path22"
             style="fill:none;stroke:#000000;stroke-width:8;stroke-linecap:butt;stroke-linejoin:miter;stroke-miterlimit:3;stroke-dasharray:none;stroke-opacity:1"
             d="m 0,0 104.75,104.75 0.2,-0.25 L 0.25,0 0,0 Z m 137.8,137.3 -32.85,-32.8 c 0.834,-0.634 1.483,-1.284 1.95,-1.95 19.134,-18.967 28.7,-41.883 28.7,-68.75 0,-26.867 -9.566,-49.783 -28.7,-68.75 -18.967,-19 -41.817,-28.5 -68.55,-28.5 -26.833,0 -49.75,9.5 -68.75,28.5 -0.8,0.8 -1.6,1.599 -2.4,2.399 L 0,0 c -0.633,0.666 -1.267,1.399 -1.9,2.199 -19,18.967 -28.5,41.884 -28.5,68.751 0,26.866 9.5,49.8 28.5,68.8 18.966,18.966 41.883,28.45 68.75,28.45 26.7,0 49.616,-9.484 68.75,-28.45 0.666,-0.833 1.4,-1.65 2.2,-2.45 z" /></g></g></g></g></svg>